<?xml version="1.0" standalone="no"?>
<!DOCTYPE svg PUBLIC "-//W3C//DTD SVG 20010904//EN"
 "http://www.w3.org/TR/2001/REC-SVG-20010904/DTD/svg10.dtd">
<svg version="1.0" xmlns="http://www.w3.org/2000/svg"
 width="300.000000pt" height="167.000000pt" viewBox="0 0 300.000000 167.000000"
 preserveAspectRatio="xMidYMid meet">
<metadata>
Created by potrace 1.10, written by Peter Selinger 2001-2011
</metadata>
<g transform="translate(0.000000,167.000000) scale(0.100000,-0.100000)"
fill="#000000" stroke="none">
<path d="M1916 1053 c-13 -27 -38 -93 -55 -147 l-31 -99 -101 -96 c-172 -163
-195 -173 -186 -87 5 53 30 114 70 170 17 24 25 27 53 23 45 -8 44 10 -2 29
-32 14 -38 13 -60 -1 -13 -8 -38 -39 -54 -68 -37 -66 -206 -235 -221 -220 -6
6 2 51 26 132 19 67 35 131 35 141 0 33 -22 35 -48 4 -88 -106 -176 -194 -184
-186 -15 15 29 105 73 148 35 34 42 37 59 26 29 -18 25 4 -4 24 -37 23 -67 14
-101 -32 -16 -22 -52 -55 -80 -72 -27 -18 -65 -44 -82 -58 l-33 -27 0 85 c0
69 -3 88 -18 101 -16 14 -72 17 -495 19 -318 2 -477 0 -477 -7 0 -6 35 -10 88
-10 48 0 261 -1 475 -2 l387 -3 0 -106 0 -106 -106 -101 c-161 -153 -224 -243
-224 -316 0 -30 6 -44 22 -55 96 -68 238 81 311 324 14 47 28 101 32 121 4 31
16 43 77 87 40 28 73 50 74 49 1 -1 -3 -21 -9 -45 -9 -35 -9 -45 5 -58 26 -26
54 -8 135 87 42 49 78 88 80 86 2 -3 -10 -45 -27 -95 -16 -49 -30 -101 -30
-114 0 -24 36 -68 56 -68 13 0 59 43 117 110 l47 55 -6 -47 c-5 -36 -3 -54 10
-73 33 -50 70 -30 222 117 l91 89 -23 -85 c-37 -141 -59 -285 -46 -298 6 -6
13 -10 15 -7 2 2 13 64 25 138 20 121 37 171 61 171 3 0 6 -19 6 -42 0 -35 4
-45 26 -57 25 -14 30 -13 82 19 30 18 96 71 145 117 l90 83 399 2 398 1 -403
10 -403 9 -82 -79 c-92 -88 -160 -138 -202 -149 -28 -7 -28 -6 -22 30 9 56 47
123 94 167 44 40 48 59 14 59 -20 0 -81 -63 -104 -107 -15 -28 -67 -82 -67
-69 0 19 85 267 106 308 13 25 33 49 44 53 25 8 26 21 1 35 -32 17 -40 12 -65
-37z m-996 -569 c-53 -194 -147 -324 -233 -324 -58 0 -60 65 -5 158 42 71 252
283 256 259 2 -9 -6 -51 -18 -93z"/>
<path d="M930 986 c0 -19 5 -38 11 -41 15 -10 18 -4 21 35 2 26 -1 35 -14 38
-15 3 -18 -3 -18 -32z"/>
</g>
</svg>
